<mxfile host="drawio-plugin" agent="Mozilla/5.0 (Windows NT 10.0; Win64; x64) AppleWebKit/537.36 (KHTML, like Gecko) Chrome/122.0.0.0 Safari/537.36" modified="2024-08-31T18:40:22.735Z" version="22.1.22" etag="pfEBTBan0a2lzkbSiaFA" type="embed">
  <diagram name="Page-1" id="jDpRVlslA_KONttzMlWA">
    <mxGraphModel dx="674" dy="403" grid="1" gridSize="10" guides="1" tooltips="1" connect="1" arrows="1" fold="1" page="1" pageScale="1" pageWidth="850" pageHeight="1100" math="0" shadow="0">
      <root>
        <mxCell id="0" />
        <mxCell id="1" parent="0" />
        <mxCell id="4" style="edgeStyle=orthogonalEdgeStyle;rounded=0;orthogonalLoop=1;jettySize=auto;html=1;exitX=0.5;exitY=1;exitDx=0;exitDy=0;" edge="1" parent="1" source="GWeuUXBWzLt9aVSwkafS-1" target="3">
          <mxGeometry relative="1" as="geometry" />
        </mxCell>
        <mxCell id="GWeuUXBWzLt9aVSwkafS-1" value="start" style="rounded=1;whiteSpace=wrap;html=1;" parent="1" vertex="1">
          <mxGeometry x="240" y="80" width="120" height="60" as="geometry" />
        </mxCell>
        <mxCell id="GWeuUXBWzLt9aVSwkafS-2" value="x:(int)&#39;what is x ?&#39;" style="shape=card;whiteSpace=wrap;html=1;" parent="1" vertex="1">
          <mxGeometry x="230" y="180" width="130" height="80" as="geometry" />
        </mxCell>
        <mxCell id="GWeuUXBWzLt9aVSwkafS-3" style="edgeStyle=orthogonalEdgeStyle;rounded=0;orthogonalLoop=1;jettySize=auto;html=1;exitX=0.5;exitY=1;exitDx=0;exitDy=0;exitPerimeter=0;" parent="1" source="GWeuUXBWzLt9aVSwkafS-2" target="GWeuUXBWzLt9aVSwkafS-2" edge="1">
          <mxGeometry relative="1" as="geometry" />
        </mxCell>
        <mxCell id="GWeuUXBWzLt9aVSwkafS-4" value="print (x)" style="shape=document;whiteSpace=wrap;html=1;boundedLbl=1;" parent="1" vertex="1">
          <mxGeometry x="240" y="310" width="120" height="80" as="geometry" />
        </mxCell>
        <mxCell id="GWeuUXBWzLt9aVSwkafS-7" value="y:(int)&quot;what is y?&quot;" style="shape=card;whiteSpace=wrap;html=1;" parent="1" vertex="1">
          <mxGeometry x="240" y="450" width="130" height="90" as="geometry" />
        </mxCell>
        <mxCell id="2" value="print(y)" style="shape=document;whiteSpace=wrap;html=1;boundedLbl=1;size=0.125;" vertex="1" parent="1">
          <mxGeometry x="245" y="630" width="120" height="80" as="geometry" />
        </mxCell>
        <mxCell id="3" value="" style="rounded=1;whiteSpace=wrap;html=1;" vertex="1" parent="1">
          <mxGeometry x="250" y="800" width="120" height="60" as="geometry" />
        </mxCell>
      </root>
    </mxGraphModel>
  </diagram>
</mxfile>
